:SAMPLES-PER-SECOND 30
:FULLY-SPECIFIED
:DEGREES
337
root  -49.1269 39.5097 16.8452 171.717 67.9664 171.451
RightUpLeg  11.9076 -0.620649 3.60737
RightLeg  14.8869 30.6039 4.94487
RightFoot  -11.9778 -0.156207 -13.5836
RightToes  -2.9104e-010 0 -3.6325e-017
Spine  3.98275 2.48852 5.87631
Spine1  5.65479 4.91648 -9.20402
HEad  -11.8472 -5.23491 6.73379
LeftShoulder1  -0.57759 5.10135 -29.9772
LeftArm  -9.42646 16.8841 -34.6332
LeftForeArm  26.2045 -12.1125 -5.02427
LeftHand  -0.00082097 7.88218 1.83718
RightShoulder  -0.936712 -6.23948 27.6867
RightArm  15.1987 8.74922 42.4274
RightForeArm  8.37588 24.1781 4.73127
RightHand  -0.232014 5.31488 -2.82703
LeftUpLeg  -17.0192 -3.05069 -7.75917
LeftLeg  7.35304 -2.78995 -0.37573
LeftFoot  4.90255 -0.617982 4.29077
LeftToes  -3.37426e-010 -1.91496e-010 5.23909e-011
338
root  -47.9533 39.3602 16.7355 168.05 70.8135 167.979
RightUpLeg  13.1483 2.64746 3.49155
RightLeg  16.8105 28.6603 6.31336
RightFoot  -11.9075 -0.144041 -13.4205
RightToes  -2.9104e-010 0 -3.6325e-017
Spine  4.02192 2.50312 3.3381
Spine1  5.35997 4.65955 -8.22704
HEad  -11.895 -3.12171 6.80888
LeftShoulder1  -0.727168 5.46756 -30.8634
LeftArm  -8.71537 15.8545 -32.216
LeftForeArm  24.8123 -12.3791 -5.13973
LeftHand  -0.0147028 7.33654 1.38799
RightShoulder  -0.974287 -6.2807 28.5291
RightArm  15.3288 6.64355 43.1827
RightForeArm  8.73199 22.1519 4.42812
RightHand  -0.223809 4.98062 -2.80315
LeftUpLeg  -17.3725 -2.47353 -7.79562
LeftLeg  11.7265 -0.608388 0.0658453
LeftFoot  5.81314 -1.053 6.73813
LeftToes  -3.37426e-010 -1.91496e-010 5.23909e-011
339
root  -46.7791 39.2688 16.6969 163.796 72.4101 163.465
RightUpLeg  12.6807 6.38613 2.97569
RightLeg  20.9609 25.9322 9.64383
RightFoot  -10.6942 -0.00413864 -12.8136
RightToes  -2.9104e-010 0 -3.6325e-017
Spine  4.00116 2.30091 -0.00302963
Spine1  4.55144 4.0362 -6.80323
HEad  -12.0138 -4.25487 6.8904
LeftShoulder1  -0.805228 5.64343 -31.479
LeftArm  -9.53072 14.1809 -30.8242
LeftForeArm  23.9398 -11.6264 -5.01761
LeftHand  0.000427823 7.75326 1.97922
RightShoulder  -1.04342 -6.40834 29.3857
RightArm  13.388 3.66398 44.2882
RightForeArm  10.1912 18.5484 4.40799
RightHand  -0.28761 5.27824 -3.46175
LeftUpLeg  -17.5322 -0.814966 -8.11983
LeftLeg  15.568 -0.624194 0.0279473
LeftFoot  2.67717 -0.701273 5.58507
LeftToes  -3.37426e-010 -1.91496e-010 5.23909e-011
340
root  -45.6774 39.3207 16.615 159.758 74.5981 159.317
RightUpLeg  11.1914 6.27387 1.32515
RightLeg  26.6549 27.6338 14.1898
RightFoot  -8.1474 0.143438 -6.44739
RightToes  -2.9104e-010 0 -3.6325e-017
Spine  3.66034 2.5301 -1.32236
Spine1  4.72892 4.25716 -7.26703
HEad  -13.3675 -11.3871 5.55618
LeftShoulder1  -0.727882 5.44966 -31.2453
LeftArm  -10.7562 12.023 -31.0251
LeftForeArm  23.2396 -10.3905 -4.79656
LeftHand  0.0131335 7.7293 2.56149
RightShoulder  -1.12442 -6.61654 29.6059
RightArm  9.13902 0.317396 45.8595
RightForeArm  12.0873 13.5265 4.62618
RightHand  -0.337597 4.59273 -4.22494
LeftUpLeg  -16.5092 0.430947 -7.99452
LeftLeg  17.1488 0.504849 0.438086
LeftFoot  0.379063 -0.605958 5.89574
LeftToes  -3.37426e-010 -1.91496e-010 5.23909e-011
341
root  -44.7367 39.2941 16.5595 151.381 77.4071 150.574
RightUpLeg  7.12143 4.11484 -2.11043
RightLeg  36.2747 29.5212 21.0762
RightFoot  -6.79148 -0.448915 9.10933
RightToes  -2.9104e-010 0 -3.6325e-017
Spine  4.07708 2.93961 -2.99985
Spine1  4.16377 4.48626 -8.27349
HEad  -13.0686 -9.43313 5.00652
LeftShoulder1  -0.717196 5.43904 -30.8921
LeftArm  -11.4243 10.6966 -31.8115
LeftForeArm  22.3704 -10.1137 -4.57991
LeftHand  0.0102409 7.97598 2.24106
RightShoulder  -1.08467 -6.49099 29.7681
RightArm  6.84993 -2.43899 46.8461
RightForeArm  13.7588 8.40542 4.67795
RightHand  -0.0999203 4.70102 -1.48233
LeftUpLeg  -15.775 1.66589 -8.18175
LeftLeg  18.4182 2.82388 1.12379
LeftFoot  -1.97091 -0.488851 6.06278
LeftToes  -3.37426e-010 -1.91496e-010 5.23909e-011
342
root  -43.8806 39.2513 16.5335 139.886 79.6827 138.729
RightUpLeg  1.52703 3.32908 -4.56271
RightLeg  46.358 26.7549 26.6265
RightFoot  -2.0771 -1.77348 21.39
RightToes  -2.9104e-010 0 -3.6325e-017
Spine  4.53562 3.00209 -5.44043
Spine1  3.82701 4.03085 -7.62489
HEad  -13.7947 -7.34532 3.99321
LeftShoulder1  -0.795343 5.62774 -31.2885
LeftArm  -11.109 9.3946 -32.4687
LeftForeArm  21.6179 -11.0195 -4.68442
LeftHand  -0.00932879 7.2271 1.76107
RightShoulder  -0.994119 -6.27729 29.2939
RightArm  7.91014 -3.95535 47.7831
RightForeArm  16.5513 5.04847 5.02985
RightHand  -0.086372 2.12902 -1.45708
LeftUpLeg  -15.1322 3.71509 -8.13852
LeftLeg  19.7238 3.61218 1.10488
LeftFoot  -4.36589 -0.27362 4.9321
LeftToes  -3.37426e-010 -1.91496e-010 5.23909e-011
343
root  -43.0031 39.2071 16.486 127.515 81.0034 126.423
RightUpLeg  -3.76497 2.38126 -6.30557
RightLeg  53.9167 21.1661 27.7569
RightFoot  1.74977 -2.98888 25.8897
RightToes  -2.9104e-010 0 -3.6325e-017
Spine  5.27046 2.76525 -7.53504
Spine1  3.53081 3.26738 -6.65517
HEad  -15.1035 -5.79322 3.15782
LeftShoulder1  -0.728145 5.45416 -31.1699
LeftArm  -10.3004 7.98556 -33.6628
LeftForeArm  21.8624 -12.1188 -4.91649
LeftHand  -0.00569195 7.11488 1.96768
RightShoulder  -1.06036 -6.41577 29.8733
RightArm  9.30981 -5.79175 46.8622
RightForeArm  22.436 4.83189 5.3985
RightHand  0.0233436 1.57264 0.191797
LeftUpLeg  -13.7836 4.8449 -8.02616
LeftLeg  20.5582 4.77201 1.18053
LeftFoot  -6.59327 -0.14126 4.37098
LeftToes  -3.37426e-010 -1.91496e-010 5.23909e-011
344
root  -42.0473 39.3037 16.4039 115.308 82.4583 114.546
RightUpLeg  -8.64878 1.19518 -7.09121
RightLeg  58.3532 14.906 23.9804
RightFoot  -0.869017 -2.10355 22.6173
RightToes  -2.9104e-010 0 -3.6325e-017
Spine  5.87038 2.47405 -8.3721
Spine1  3.38301 2.59129 -5.34191
HEad  -15.8802 -4.05968 2.54984
LeftShoulder1  -0.659987 5.28861 -30.828
LeftArm  -8.7167 6.14149 -35.2157
LeftForeArm  21.9414 -13.4271 -5.20569
LeftHand  0.0274284 7.669 3.28018
RightShoulder  -1.13169 -6.59474 30.0918
RightArm  10.9082 -7.96547 45.5339
RightForeArm  26.4264 6.23222 5.83947
RightHand  0.063603 2.35841 0.726282
LeftUpLeg  -11.4072 5.19308 -7.2301
LeftLeg  20.1032 6.56561 1.54829
LeftFoot  -8.18174 -0.0555449 3.79709
LeftToes  -3.37426e-010 -1.91496e-010 5.23909e-011
345
root  -41.0773 39.3986 16.3212 100.697 83.7737 100.241
RightUpLeg  -13.2287 0.0892853 -7.25809
RightLeg  59.8311 10.6609 18.7042
RightFoot  -1.56304 -1.60601 18.536
RightToes  -2.9104e-010 0 -3.6325e-017
Spine  6.45487 2.02074 -8.35232
Spine1  3.08176 1.92016 -4.51152
HEad  -16.1558 -2.41164 2.6498
LeftShoulder1  -0.704921 5.41765 -30.6686
LeftArm  -6.92665 4.78147 -36.5984
LeftForeArm  21.5488 -16.1041 -4.86221
LeftHand  0.00705053 7.1851 2.78573
RightShoulder  -1.11671 -6.559 30.025
RightArm  12.6799 -10.5219 44.1869
RightForeArm  26.0028 8.78858 6.2185
RightHand  -0.00928916 1.61066 -0.270884
LeftUpLeg  -8.96944 5.80907 -6.17392
LeftLeg  19.5146 7.9491 1.74399
LeftFoot  -9.58523 0.00721142 3.3111
LeftToes  -3.37426e-010 -1.91496e-010 5.23909e-011
346
root  -40.0478 39.5109 16.2456 85.1754 84.7139 84.9098
RightUpLeg  -16.8487 -1.10248 -6.97616
RightLeg  57.8936 8.59449 14.0844
RightFoot  -1.8716 -1.21029 14.3538
RightToes  -2.9104e-010 0 -3.6325e-017
Spine  6.79698 1.43919 -8.31571
Spine1  2.72487 1.11003 -3.023
HEad  -16.3774 -1.57043 1.67901
LeftShoulder1  -0.785417 5.61095 -31.1067
LeftArm  -5.54719 3.25299 -37.6711
LeftForeArm  20.7046 -18.6703 -4.36848
LeftHand  0.0225309 7.07834 3.82432
RightShoulder  -1.12918 -6.60243 29.9221
RightArm  13.9734 -12.5301 42.65
RightForeArm  21.3284 10.4991 6.19943
RightHand  -0.0545684 4.67939 -0.930798
LeftUpLeg  -6.26744 6.53585 -4.95925
LeftLeg  18.3214 8.88054 1.55187
LeftFoot  -10.674 0.0466339 3.07653
LeftToes  -3.37426e-010 -1.91496e-010 5.23909e-011
347
root  -38.9974 39.5846 16.1777 68.2233 85.3334 68.202
RightUpLeg  -19.3476 -2.07303 -6.33867
RightLeg  52.7218 7.4594 10.0328
RightFoot  -2.84569 -0.819165 10.7582
RightToes  -2.9104e-010 0 -3.6325e-017
Spine  7.1985 0.886995 -7.71373
Spine1  2.32503 0.457237 -1.9467
HEad  -15.9962 -0.375756 2.06062
LeftShoulder1  -0.838301 5.74018 -31.3154
LeftArm  -4.62477 2.23373 -38.7261
LeftForeArm  19.325 -21.8888 -3.98279
LeftHand  0.0215404 6.95353 4.03083
RightShoulder  -1.15037 -6.69032 29.5856
RightArm  13.3752 -14.254 41.8092
RightForeArm  18.2566 11.3599 5.7539
RightHand  -0.098119 5.50196 -1.37348
LeftUpLeg  -3.49768 7.00835 -3.81877
LeftLeg  17.0955 9.54258 1.49217
LeftFoot  -11.7363 0.079204 2.76773
LeftToes  -3.37426e-010 -1.91496e-010 5.23909e-011
348
root  -37.9377 39.574 16.1576 50.7631 85.2414 50.8228
RightUpLeg  -20.9602 -3.08421 -5.91601
RightLeg  44.6203 6.98265 7.07327
RightFoot  -3.77465 -0.683308 9.92806
RightToes  -2.9104e-010 0 -3.6325e-017
Spine  7.50449 0.347715 -6.89664
Spine1  1.8919 0.0430101 -1.96333
HEad  -15.798 0.110416 2.51213
LeftShoulder1  -0.789266 5.65008 -30.6101
LeftArm  -5.3096 1.7053 -40.0435
LeftForeArm  19.1273 -24.8991 -4.28673
LeftHand  0.0353746 6.84981 5.10552
RightShoulder  -1.11885 -6.58972 29.7333
RightArm  12.8694 -15.9596 41.0007
RightForeArm  16.4704 12.181 5.35256
RightHand  -0.168932 4.99601 -2.19187
LeftUpLeg  -1.02923 7.26325 -3.06236
LeftLeg  16.1953 10.3783 1.63803
LeftFoot  -13.0323 0.108076 1.9973
LeftToes  -3.37426e-010 -1.91496e-010 5.23909e-011
349
root  -36.8702 39.5846 16.1458 36.5031 84.6994 36.5047
RightUpLeg  -21.3458 -4.63325 -5.29028
RightLeg  33.5589 6.39372 4.28406
RightFoot  -3.42721 -0.636746 8.8779
RightToes  -2.9104e-010 0 -3.6325e-017
Spine  7.6535 0.0567713 -6.15482
Spine1  1.69509 -0.195573 -1.3198
HEad  -15.3797 0.508859 2.55104
LeftShoulder1  -0.789179 5.64535 -30.6834
LeftArm  -5.25843 0.833721 -40.7462
LeftForeArm  20.3036 -27.8423 -4.90597
LeftHand  -0.0162898 5.6984 4.10689
RightShoulder  -1.12609 -6.60803 29.7537
RightArm  11.2719 -16.8409 40.5253
RightForeArm  17.1851 11.9342 4.90409
RightHand  -0.0721131 5.03139 -1.11258
LeftUpLeg  1.74826 7.60217 -2.38013
LeftLeg  14.4042 11.4716 1.397
LeftFoot  -13.8139 0.113763 1.4211
LeftToes  -3.37426e-010 -1.91496e-010 5.23909e-011
350
root  -35.7451 39.5474 16.1862 30.1066 84.2446 29.649
RightUpLeg  -21.1918 -7.061 -4.5675
RightLeg  21.0998 6.656 2.63274
RightFoot  -2.74143 -0.592411 7.59867
RightToes  -2.9104e-010 0 -3.6325e-017
Spine  7.31478 -0.172276 -5.56481
Spine1  1.42914 -0.39152 -0.610238
HEad  -15.1056 -0.326489 2.46515
LeftShoulder1  -0.732357 5.5008 -30.5109
LeftArm  -4.84355 0.134018 -41.6272
LeftForeArm  21.6986 -30.2834 -5.39577
LeftHand  -0.0251761 5.39092 3.97182
RightShoulder  -1.15127 -6.66144 29.9437
RightArm  10.387 -17.563 40.009
RightForeArm  17.8738 11.4751 4.66057
RightHand  -0.0697752 3.84399 -1.13727
LeftUpLeg  4.1634 7.79146 -1.89913
LeftLeg  12.4769 11.9287 0.958911
LeftFoot  -14.4922 0.112125 0.915005
LeftToes  -3.37426e-010 -1.91496e-010 5.23909e-011
